<svg width="151" height="22" viewBox="0 0 151 22" fill="none" xmlns="http://www.w3.org/2000/svg">
<path d="M17.1289 10.582V11.5254C17.1289 13.0384 16.9238 14.3965 16.5137 15.5996C16.1035 16.8027 15.5247 17.8281 14.7773 18.6758C14.0299 19.5143 13.1367 20.1569 12.0977 20.6035C11.0677 21.0501 9.92383 21.2734 8.66602 21.2734C7.41732 21.2734 6.27344 21.0501 5.23438 20.6035C4.20443 20.1569 3.3112 19.5143 2.55469 18.6758C1.79818 17.8281 1.21029 16.8027 0.791016 15.5996C0.380859 14.3965 0.175781 13.0384 0.175781 11.5254V10.582C0.175781 9.0599 0.380859 7.70182 0.791016 6.50781C1.20117 5.30469 1.77995 4.2793 2.52734 3.43164C3.28385 2.58398 4.17708 1.93685 5.20703 1.49023C6.24609 1.04362 7.38997 0.820312 8.63867 0.820312C9.89648 0.820312 11.0404 1.04362 12.0703 1.49023C13.1094 1.93685 14.0026 2.58398 14.75 3.43164C15.5065 4.2793 16.0898 5.30469 16.5 6.50781C16.9193 7.70182 17.1289 9.0599 17.1289 10.582ZM12.9863 11.5254V10.5547C12.9863 9.4974 12.8906 8.56771 12.6992 7.76562C12.5078 6.96354 12.2253 6.28906 11.8516 5.74219C11.4779 5.19531 11.0221 4.78516 10.4844 4.51172C9.94661 4.22917 9.33138 4.08789 8.63867 4.08789C7.94596 4.08789 7.33073 4.22917 6.79297 4.51172C6.26432 4.78516 5.81315 5.19531 5.43945 5.74219C5.07487 6.28906 4.79688 6.96354 4.60547 7.76562C4.41406 8.56771 4.31836 9.4974 4.31836 10.5547V11.5254C4.31836 12.5736 4.41406 13.5033 4.60547 14.3145C4.79688 15.1165 5.07943 15.7956 5.45312 16.3516C5.82682 16.8984 6.28255 17.3132 6.82031 17.5957C7.35807 17.8783 7.97331 18.0195 8.66602 18.0195C9.35872 18.0195 9.97396 17.8783 10.5117 17.5957C11.0495 17.3132 11.5007 16.8984 11.8652 16.3516C12.2298 15.7956 12.5078 15.1165 12.6992 14.3145C12.8906 13.5033 12.9863 12.5736 12.9863 11.5254ZM31.0742 1.09375H35.1621V14.2461C35.1621 15.7773 34.834 17.0671 34.1777 18.1152C33.5306 19.1634 32.6328 19.9518 31.4844 20.4805C30.3451 21.0091 29.0326 21.2734 27.5469 21.2734C26.0612 21.2734 24.7396 21.0091 23.582 20.4805C22.4336 19.9518 21.5312 19.1634 20.875 18.1152C20.2279 17.0671 19.9043 15.7773 19.9043 14.2461V1.09375H24.0059V14.2461C24.0059 15.1393 24.1471 15.8685 24.4297 16.4336C24.7122 16.9987 25.1178 17.4134 25.6465 17.6777C26.1842 17.9421 26.8177 18.0742 27.5469 18.0742C28.2943 18.0742 28.9277 17.9421 29.4473 17.6777C29.9759 17.4134 30.377 16.9987 30.6504 16.4336C30.9329 15.8685 31.0742 15.1393 31.0742 14.2461V1.09375ZM38.5391 1.09375H45.9629C47.485 1.09375 48.793 1.32161 49.8867 1.77734C50.9896 2.23307 51.8372 2.90755 52.4297 3.80078C53.0221 4.69401 53.3184 5.79232 53.3184 7.0957C53.3184 8.16211 53.1361 9.07812 52.7715 9.84375C52.416 10.6003 51.9102 11.2337 51.2539 11.7441C50.6068 12.2454 49.8457 12.6465 48.9707 12.9473L47.6719 13.6309H41.2188L41.1914 10.4316H45.9902C46.7103 10.4316 47.3073 10.304 47.7812 10.0488C48.2552 9.79362 48.6107 9.43815 48.8477 8.98242C49.0938 8.52669 49.2168 7.99805 49.2168 7.39648C49.2168 6.75846 49.0983 6.20703 48.8613 5.74219C48.6243 5.27734 48.2643 4.92188 47.7812 4.67578C47.2982 4.42969 46.6921 4.30664 45.9629 4.30664H42.6406V21H38.5391V1.09375ZM49.668 21L45.1289 12.127L49.4629 12.0996L54.0566 20.8086V21H49.668ZM70.627 16.8438L75.3164 1.09375H79.8828L72.9512 21H69.9434L70.627 16.8438ZM66.3066 1.09375L70.9824 16.8438L71.6934 21H68.6582L61.7676 1.09375H66.3066ZM86.1035 1.09375V21H82.0156V1.09375H86.1035ZM100.309 15.791C100.309 15.4355 100.254 15.1165 100.145 14.834C100.044 14.5423 99.8529 14.278 99.5703 14.041C99.2878 13.7949 98.8913 13.5534 98.3809 13.3164C97.8704 13.0794 97.2096 12.8333 96.3984 12.5781C95.4961 12.2865 94.6393 11.9583 93.8281 11.5938C93.026 11.2292 92.3151 10.8053 91.6953 10.3223C91.0846 9.83008 90.6016 9.26042 90.2461 8.61328C89.8997 7.96615 89.7266 7.21419 89.7266 6.35742C89.7266 5.52799 89.9089 4.77604 90.2734 4.10156C90.638 3.41797 91.1484 2.83464 91.8047 2.35156C92.4609 1.85938 93.2357 1.48112 94.1289 1.2168C95.0312 0.952474 96.0202 0.820312 97.0957 0.820312C98.5632 0.820312 99.8438 1.08464 100.938 1.61328C102.031 2.14193 102.879 2.86654 103.48 3.78711C104.091 4.70768 104.396 5.76042 104.396 6.94531H100.322C100.322 6.36198 100.199 5.85156 99.9531 5.41406C99.7161 4.96745 99.3516 4.61654 98.8594 4.36133C98.3763 4.10612 97.7656 3.97852 97.0273 3.97852C96.3164 3.97852 95.724 4.08789 95.25 4.30664C94.776 4.51628 94.4206 4.80339 94.1836 5.16797C93.9466 5.52344 93.8281 5.92448 93.8281 6.37109C93.8281 6.70833 93.9102 7.01367 94.0742 7.28711C94.2474 7.56055 94.5026 7.81576 94.8398 8.05273C95.1771 8.28971 95.5918 8.51302 96.084 8.72266C96.5762 8.93229 97.1458 9.13737 97.793 9.33789C98.8776 9.66602 99.8301 10.0352 100.65 10.4453C101.48 10.8555 102.173 11.3158 102.729 11.8262C103.285 12.3366 103.704 12.9154 103.986 13.5625C104.269 14.2096 104.41 14.9434 104.41 15.7637C104.41 16.6296 104.242 17.4043 103.904 18.0879C103.567 18.7715 103.079 19.3503 102.441 19.8242C101.803 20.2982 101.042 20.6582 100.158 20.9043C99.2741 21.1504 98.2852 21.2734 97.1914 21.2734C96.207 21.2734 95.2363 21.1458 94.2793 20.8906C93.3223 20.6263 92.4518 20.2298 91.668 19.7012C90.8932 19.1725 90.2734 18.498 89.8086 17.6777C89.3438 16.8574 89.1113 15.8867 89.1113 14.7656H93.2266C93.2266 15.3854 93.3223 15.9095 93.5137 16.3379C93.7051 16.7663 93.974 17.1126 94.3203 17.377C94.6758 17.6413 95.0951 17.8327 95.5781 17.9512C96.0703 18.0697 96.6081 18.1289 97.1914 18.1289C97.9023 18.1289 98.4857 18.0286 98.9414 17.8281C99.4062 17.6276 99.748 17.3496 99.9668 16.9941C100.195 16.6387 100.309 16.2376 100.309 15.791ZM111.561 1.09375V21H107.473V1.09375H111.561ZM131.754 10.582V11.5254C131.754 13.0384 131.549 14.3965 131.139 15.5996C130.729 16.8027 130.15 17.8281 129.402 18.6758C128.655 19.5143 127.762 20.1569 126.723 20.6035C125.693 21.0501 124.549 21.2734 123.291 21.2734C122.042 21.2734 120.898 21.0501 119.859 20.6035C118.829 20.1569 117.936 19.5143 117.18 18.6758C116.423 17.8281 115.835 16.8027 115.416 15.5996C115.006 14.3965 114.801 13.0384 114.801 11.5254V10.582C114.801 9.0599 115.006 7.70182 115.416 6.50781C115.826 5.30469 116.405 4.2793 117.152 3.43164C117.909 2.58398 118.802 1.93685 119.832 1.49023C120.871 1.04362 122.015 0.820312 123.264 0.820312C124.521 0.820312 125.665 1.04362 126.695 1.49023C127.734 1.93685 128.628 2.58398 129.375 3.43164C130.132 4.2793 130.715 5.30469 131.125 6.50781C131.544 7.70182 131.754 9.0599 131.754 10.582ZM127.611 11.5254V10.5547C127.611 9.4974 127.516 8.56771 127.324 7.76562C127.133 6.96354 126.85 6.28906 126.477 5.74219C126.103 5.19531 125.647 4.78516 125.109 4.51172C124.572 4.22917 123.956 4.08789 123.264 4.08789C122.571 4.08789 121.956 4.22917 121.418 4.51172C120.889 4.78516 120.438 5.19531 120.064 5.74219C119.7 6.28906 119.422 6.96354 119.23 7.76562C119.039 8.56771 118.943 9.4974 118.943 10.5547V11.5254C118.943 12.5736 119.039 13.5033 119.23 14.3145C119.422 15.1165 119.704 15.7956 120.078 16.3516C120.452 16.8984 120.908 17.3132 121.445 17.5957C121.983 17.8783 122.598 18.0195 123.291 18.0195C123.984 18.0195 124.599 17.8783 125.137 17.5957C125.674 17.3132 126.126 16.8984 126.49 16.3516C126.855 15.7956 127.133 15.1165 127.324 14.3145C127.516 13.5033 127.611 12.5736 127.611 11.5254ZM150.908 1.09375V21H146.807L138.809 7.65625V21H134.707V1.09375H138.809L146.82 14.4512V1.09375H150.908Z" fill="white"/>
</svg>
